<svg width="192" height="192" viewBox="0 0 192 192" fill="none" xmlns="http://www.w3.org/2000/svg">
  <rect width="192" height="192" rx="40" fill="url(#grad)"/>
  <circle cx="96" cy="96" r="60" fill="white" fill-opacity="0.15"/>
  <path d="M96 56C74.9 56 58 72.9 58 94s16.9 38 38 38 38-16.9 38-38-16.9-38-38-38zm0 68c-16.5 0-30-13.5-30-30s13.5-30 30-30 30 13.5 30 30-13.5 30-30 30z" fill="white" fill-opacity="0.3"/>
  <path d="M96 68v26l18 9" stroke="white" stroke-width="8" stroke-linecap="round" stroke-linejoin="round"/>
  <circle cx="96" cy="94" r="6" fill="white"/>
  <path d="M96 60v6M132 94h-6M96 128v-6M60 94h6" stroke="white" stroke-width="6" stroke-linecap="round"/>
  <defs>
    <linearGradient id="grad" x1="0" y1="0" x2="192" y2="192">
      <stop offset="0%" stop-color="#10b981"/>
      <stop offset="50%" stop-color="#14b8a6"/>
      <stop offset="100%" stop-color="#06b6d4"/>
    </linearGradient>
  </defs>
</svg>
